<mxfile host="app.diagrams.net" modified="2021-01-18T03:31:20.710Z" agent="5.0 (Macintosh; Intel Mac OS X 11_0_0) AppleWebKit/537.36 (KHTML, like Gecko) Chrome/87.0.4280.141 Safari/537.36" etag="sR_yxkP_2eL2zoa6xrwT" version="14.1.8" type="github">
  <diagram id="rvpRbDeUgA8YePQZKAHE" name="第 1 页">
    <mxGraphModel dx="1113" dy="631" grid="0" gridSize="10" guides="1" tooltips="1" connect="1" arrows="1" fold="1" page="1" pageScale="1" pageWidth="827" pageHeight="1169" math="0" shadow="0">
      <root>
        <mxCell id="0" />
        <mxCell id="1" parent="0" />
        <mxCell id="-D_Cvpl0m4vMDCp08sZc-1" value="" style="endArrow=classic;html=1;" edge="1" parent="1">
          <mxGeometry width="50" height="50" relative="1" as="geometry">
            <mxPoint x="32" y="310" as="sourcePoint" />
            <mxPoint x="1266" y="310" as="targetPoint" />
          </mxGeometry>
        </mxCell>
        <mxCell id="-D_Cvpl0m4vMDCp08sZc-8" value="" style="shape=curlyBracket;whiteSpace=wrap;html=1;rounded=1;rotation=-90;" vertex="1" parent="1">
          <mxGeometry x="231.5" y="221.5" width="20" height="425" as="geometry" />
        </mxCell>
        <mxCell id="-D_Cvpl0m4vMDCp08sZc-9" value="" style="shape=curlyBracket;whiteSpace=wrap;html=1;rounded=1;rotation=90;" vertex="1" parent="1">
          <mxGeometry x="231.5" y="-26" width="20" height="425" as="geometry" />
        </mxCell>
        <mxCell id="-D_Cvpl0m4vMDCp08sZc-10" value="代码,配置" style="text;html=1;strokeColor=none;fillColor=none;align=center;verticalAlign=middle;whiteSpace=wrap;rounded=0;" vertex="1" parent="1">
          <mxGeometry x="222" y="461" width="40" height="20" as="geometry" />
        </mxCell>
      </root>
    </mxGraphModel>
  </diagram>
</mxfile>
